<?xml version="1.0" encoding="UTF-8" standalone="no"?>
<!DOCTYPE svg PUBLIC "-//W3C//DTD SVG 1.1//EN"
 "http://www.w3.org/Graphics/SVG/1.1/DTD/svg11.dtd">
<!-- Generated by graphviz version 2.40.1 (20161225.0304)
 -->
<!-- Title: dependencies Pages: 1 -->
<svg width="593pt" height="211pt"
 viewBox="0.00 0.00 593.00 211.00" xmlns="http://www.w3.org/2000/svg" xmlns:xlink="http://www.w3.org/1999/xlink">
<g id="graph0" class="graph" transform="scale(1 1) rotate(0) translate(4 207)">
<title>dependencies</title>
<polygon fill="#ffffff" stroke="transparent" points="-4,4 -4,-207 589,-207 589,4 -4,4"/>
<text text-anchor="start" x="271.5091" y="-42.4" font-family="sans-serif" font-weight="bold" font-size="14.00" fill="#000000">Legend</text>
<polygon fill="#ffffb3" stroke="transparent" points="58.5,-10 58.5,-30 78.5,-30 78.5,-10 58.5,-10"/>
<text text-anchor="start" x="82.129" y="-15.4" font-family="sans-serif" font-size="14.00" fill="#000000"> &#160;Declarations</text>
<polygon fill="#8dd3c7" stroke="transparent" points="171.5,-10 171.5,-30 191.5,-30 191.5,-10 171.5,-10"/>
<text text-anchor="start" x="195.2251" y="-15.4" font-family="sans-serif" font-size="14.00" fill="#000000"> &#160;Module</text>
<polygon fill="#80b1d3" stroke="transparent" points="257.5,-10 257.5,-30 277.5,-30 277.5,-10 257.5,-10"/>
<text text-anchor="start" x="281.2812" y="-15.4" font-family="sans-serif" font-size="14.00" fill="#000000"> &#160;Bootstrap</text>
<polygon fill="#fdb462" stroke="transparent" points="354.5,-10 354.5,-30 374.5,-30 374.5,-10 354.5,-10"/>
<text text-anchor="start" x="378.1732" y="-15.4" font-family="sans-serif" font-size="14.00" fill="#000000"> &#160;Providers</text>
<polygon fill="#fb8072" stroke="transparent" points="450.5,-10 450.5,-30 470.5,-30 470.5,-10 450.5,-10"/>
<text text-anchor="start" x="474.2258" y="-15.4" font-family="sans-serif" font-size="14.00" fill="#000000"> &#160;Exports</text>
<g id="clust1" class="cluster">
<title>cluster_SiteModule</title>
<polygon fill="none" stroke="#000000" stroke-dasharray="1,5" points="8,-70 8,-195 577,-195 577,-70 8,-70"/>
</g>
<g id="clust2" class="cluster">
<title>cluster_SiteModule_declarations</title>
<polygon fill="none" stroke="#000000" points="166,-78 166,-130 569,-130 569,-78 166,-78"/>
</g>
<g id="clust6" class="cluster">
<title>cluster_SiteModule_imports</title>
<polygon fill="none" stroke="#000000" points="16,-78 16,-130 158,-130 158,-78 16,-78"/>
</g>
<!-- AboutUsComponent -->
<g id="node1" class="node">
<title>AboutUsComponent</title>
<polygon fill="#ffffb3" stroke="#000000" points="560.8809,-122 429.1191,-122 429.1191,-86 560.8809,-86 560.8809,-122"/>
<text text-anchor="middle" x="495" y="-99.8" font-family="Times,serif" font-size="14.00" fill="#000000">AboutUsComponent</text>
</g>
<!-- SiteModule -->
<g id="node4" class="node">
<title>SiteModule</title>
<polygon fill="#8dd3c7" stroke="#000000" points="329.8289,-187 326.8289,-191 305.8289,-191 302.8289,-187 248.1711,-187 248.1711,-151 329.8289,-151 329.8289,-187"/>
<text text-anchor="middle" x="289" y="-164.8" font-family="Times,serif" font-size="14.00" fill="#000000">SiteModule</text>
</g>
<!-- AboutUsComponent&#45;&gt;SiteModule -->
<g id="edge1" class="edge">
<title>AboutUsComponent&#45;&gt;SiteModule</title>
<path fill="none" stroke="#000000" d="M495,-122.1061C495,-141.3391 495,-169 495,-169 495,-169 339.699,-169 339.699,-169"/>
<polygon fill="#000000" stroke="#000000" points="339.699,-165.5001 329.699,-169 339.6989,-172.5001 339.699,-165.5001"/>
</g>
<!-- HomeComponent -->
<g id="node2" class="node">
<title>HomeComponent</title>
<polygon fill="#ffffb3" stroke="#000000" points="410.5451,-122 295.4549,-122 295.4549,-86 410.5451,-86 410.5451,-122"/>
<text text-anchor="middle" x="353" y="-99.8" font-family="Times,serif" font-size="14.00" fill="#000000">HomeComponent</text>
</g>
<!-- HomeComponent&#45;&gt;SiteModule -->
<g id="edge2" class="edge">
<title>HomeComponent&#45;&gt;SiteModule</title>
<path fill="none" stroke="#000000" d="M312.446,-122.1061C312.446,-122.1061 312.446,-140.991 312.446,-140.991"/>
<polygon fill="#000000" stroke="#000000" points="308.9461,-140.9909 312.446,-150.991 315.9461,-140.991 308.9461,-140.9909"/>
</g>
<!-- SiteComponent -->
<g id="node3" class="node">
<title>SiteComponent</title>
<polygon fill="#ffffb3" stroke="#000000" points="277.6109,-122 174.3891,-122 174.3891,-86 277.6109,-86 277.6109,-122"/>
<text text-anchor="middle" x="226" y="-99.8" font-family="Times,serif" font-size="14.00" fill="#000000">SiteComponent</text>
</g>
<!-- SiteComponent&#45;&gt;SiteModule -->
<g id="edge3" class="edge">
<title>SiteComponent&#45;&gt;SiteModule</title>
<path fill="none" stroke="#000000" d="M262.9457,-122.1061C262.9457,-122.1061 262.9457,-140.991 262.9457,-140.991"/>
<polygon fill="#000000" stroke="#000000" points="259.4457,-140.9909 262.9457,-150.991 266.4457,-140.991 259.4457,-140.9909"/>
</g>
<!-- SiteRoutingModule -->
<g id="node5" class="node">
<title>SiteRoutingModule</title>
<polygon fill="#8dd3c7" stroke="#000000" points="150.4468,-122 147.4468,-126 126.4468,-126 123.4468,-122 23.5532,-122 23.5532,-86 150.4468,-86 150.4468,-122"/>
<text text-anchor="middle" x="87" y="-99.8" font-family="Times,serif" font-size="14.00" fill="#000000">SiteRoutingModule</text>
</g>
<!-- SiteRoutingModule&#45;&gt;SiteModule -->
<g id="edge4" class="edge">
<title>SiteRoutingModule&#45;&gt;SiteModule</title>
<path fill="none" stroke="#000000" d="M87,-122.1061C87,-141.3391 87,-169 87,-169 87,-169 238.1223,-169 238.1223,-169"/>
<polygon fill="#000000" stroke="#000000" points="238.1223,-172.5001 248.1223,-169 238.1223,-165.5001 238.1223,-172.5001"/>
</g>
</g>
</svg>
