<?xml version="1.0" encoding="UTF-8" standalone="no"?>
<!DOCTYPE svg PUBLIC "-//W3C//DTD SVG 1.1//EN"
 "http://www.w3.org/Graphics/SVG/1.1/DTD/svg11.dtd">
<!-- Generated by graphviz version 2.40.1 (20161225.0304)
 -->
<!-- Title: dependencies Pages: 1 -->
<svg width="1501pt" height="360pt"
 viewBox="0.00 0.00 1501.00 360.00" xmlns="http://www.w3.org/2000/svg" xmlns:xlink="http://www.w3.org/1999/xlink">
<g id="graph0" class="graph" transform="scale(1 1) rotate(0) translate(4 356)">
<title>dependencies</title>
<polygon fill="#ffffff" stroke="transparent" points="-4,4 -4,-356 1497,-356 1497,4 -4,4"/>
<text text-anchor="start" x="725.5091" y="-42.4" font-family="sans-serif" font-weight="bold" font-size="14.00" fill="#000000">Legend</text>
<polygon fill="#ffffb3" stroke="transparent" points="512.5,-10 512.5,-30 532.5,-30 532.5,-10 512.5,-10"/>
<text text-anchor="start" x="536.129" y="-15.4" font-family="sans-serif" font-size="14.00" fill="#000000"> &#160;Declarations</text>
<polygon fill="#8dd3c7" stroke="transparent" points="625.5,-10 625.5,-30 645.5,-30 645.5,-10 625.5,-10"/>
<text text-anchor="start" x="649.2251" y="-15.4" font-family="sans-serif" font-size="14.00" fill="#000000"> &#160;Module</text>
<polygon fill="#80b1d3" stroke="transparent" points="711.5,-10 711.5,-30 731.5,-30 731.5,-10 711.5,-10"/>
<text text-anchor="start" x="735.2812" y="-15.4" font-family="sans-serif" font-size="14.00" fill="#000000"> &#160;Bootstrap</text>
<polygon fill="#fdb462" stroke="transparent" points="808.5,-10 808.5,-30 828.5,-30 828.5,-10 808.5,-10"/>
<text text-anchor="start" x="832.1732" y="-15.4" font-family="sans-serif" font-size="14.00" fill="#000000"> &#160;Providers</text>
<polygon fill="#fb8072" stroke="transparent" points="904.5,-10 904.5,-30 924.5,-30 924.5,-10 904.5,-10"/>
<text text-anchor="start" x="928.2258" y="-15.4" font-family="sans-serif" font-size="14.00" fill="#000000"> &#160;Exports</text>
<g id="clust1" class="cluster">
<title>cluster_AdminModule</title>
<polygon fill="none" stroke="#000000" stroke-dasharray="1,5" points="8,-70 8,-206 603,-206 603,-70 8,-70"/>
</g>
<g id="clust2" class="cluster">
<title>cluster_AdminModule_declarations</title>
<polygon fill="none" stroke="#000000" points="16,-78 16,-130 305,-130 305,-78 16,-78"/>
</g>
<g id="clust5" class="cluster">
<title>cluster_AdminModule_imports</title>
<polygon fill="none" stroke="#000000" points="313,-78 313,-130 595,-130 595,-78 313,-78"/>
</g>
<g id="clust15" class="cluster">
<title>cluster_AppModule</title>
<polygon fill="none" stroke="#000000" stroke-dasharray="1,5" points="931,-146 931,-344 1321,-344 1321,-146 931,-146"/>
</g>
<g id="clust16" class="cluster">
<title>cluster_AppModule_declarations</title>
<polygon fill="none" stroke="#000000" points="1191,-154 1191,-206 1313,-206 1313,-154 1191,-154"/>
</g>
<g id="clust18" class="cluster">
<title>cluster_AppModule_imports</title>
<polygon fill="none" stroke="#000000" points="939,-154 939,-206 1183,-206 1183,-154 939,-154"/>
</g>
<g id="clust20" class="cluster">
<title>cluster_AppModule_bootstrap</title>
<polygon fill="none" stroke="#000000" points="949,-284 949,-336 1073,-336 1073,-284 949,-284"/>
</g>
<g id="clust22" class="cluster">
<title>cluster_AppRoutingModule</title>
<polygon fill="none" stroke="#000000" stroke-dasharray="1,5" points="738,-70 738,-138 908,-138 908,-70 738,-70"/>
</g>
<g id="clust23" class="cluster">
<title>cluster_AppRoutingModule_declarations</title>
<polygon fill="none" stroke="#000000" points="746,-78 746,-130 900,-130 900,-78 746,-78"/>
</g>
<g id="clust29" class="cluster">
<title>cluster_SideBarModule</title>
<polygon fill="none" stroke="#000000" stroke-dasharray="1,5" points="611,-146 611,-214 923,-214 923,-146 611,-146"/>
</g>
<g id="clust30" class="cluster">
<title>cluster_SideBarModule_declarations</title>
<polygon fill="none" stroke="#000000" points="773,-154 773,-206 915,-206 915,-154 773,-154"/>
</g>
<g id="clust33" class="cluster">
<title>cluster_SideBarModule_exports</title>
<polygon fill="none" stroke="#000000" points="619,-154 619,-206 765,-206 765,-154 619,-154"/>
</g>
<g id="clust36" class="cluster">
<title>cluster_SiteModule</title>
<polygon fill="none" stroke="#000000" stroke-dasharray="1,5" points="916,-70 916,-138 1485,-138 1485,-70 916,-70"/>
</g>
<g id="clust37" class="cluster">
<title>cluster_SiteModule_declarations</title>
<polygon fill="none" stroke="#000000" points="1074,-78 1074,-130 1477,-130 1477,-78 1074,-78"/>
</g>
<g id="clust41" class="cluster">
<title>cluster_SiteModule_imports</title>
<polygon fill="none" stroke="#000000" points="924,-78 924,-130 1066,-130 1066,-78 924,-78"/>
</g>
<!-- AdminComponent -->
<g id="node1" class="node">
<title>AdminComponent</title>
<polygon fill="#ffffb3" stroke="#000000" points="297.2204,-122 176.7796,-122 176.7796,-86 297.2204,-86 297.2204,-122"/>
<text text-anchor="middle" x="237" y="-99.8" font-family="Times,serif" font-size="14.00" fill="#000000">AdminComponent</text>
</g>
<!-- AdminModule -->
<g id="node3" class="node">
<title>AdminModule</title>
<polygon fill="#8dd3c7" stroke="#000000" points="442.4386,-198 439.4386,-202 418.4386,-202 415.4386,-198 343.5614,-198 343.5614,-162 442.4386,-162 442.4386,-198"/>
<text text-anchor="middle" x="393" y="-175.8" font-family="Times,serif" font-size="14.00" fill="#000000">AdminModule</text>
</g>
<!-- AdminComponent&#45;&gt;AdminModule -->
<g id="edge1" class="edge">
<title>AdminComponent&#45;&gt;AdminModule</title>
<path fill="none" stroke="#000000" d="M237,-122.0267C237,-142.7672 237,-174 237,-174 237,-174 333.6406,-174 333.6406,-174"/>
<polygon fill="#000000" stroke="#000000" points="333.6407,-177.5001 343.6406,-174 333.6406,-170.5001 333.6407,-177.5001"/>
</g>
<!-- WelcomeComponent -->
<g id="node2" class="node">
<title>WelcomeComponent</title>
<polygon fill="#ffffb3" stroke="#000000" points="158.472,-122 23.528,-122 23.528,-86 158.472,-86 158.472,-122"/>
<text text-anchor="middle" x="91" y="-99.8" font-family="Times,serif" font-size="14.00" fill="#000000">WelcomeComponent</text>
</g>
<!-- WelcomeComponent&#45;&gt;AdminModule -->
<g id="edge2" class="edge">
<title>WelcomeComponent&#45;&gt;AdminModule</title>
<path fill="none" stroke="#000000" d="M91,-122.1985C91,-146.3563 91,-186 91,-186 91,-186 333.469,-186 333.469,-186"/>
<polygon fill="#000000" stroke="#000000" points="333.469,-189.5001 343.469,-186 333.469,-182.5001 333.469,-189.5001"/>
</g>
<!-- AppModule -->
<g id="node7" class="node">
<title>AppModule</title>
<polygon fill="#8dd3c7" stroke="#000000" points="1052.6571,-263 1049.6571,-267 1028.6571,-267 1025.6571,-263 969.3429,-263 969.3429,-227 1052.6571,-227 1052.6571,-263"/>
<text text-anchor="middle" x="1011" y="-240.8" font-family="Times,serif" font-size="14.00" fill="#000000">AppModule</text>
</g>
<!-- AdminModule&#45;&gt;AppModule -->
<g id="edge6" class="edge">
<title>AdminModule&#45;&gt;AppModule</title>
<path fill="none" stroke="#000000" d="M393,-198.2843C393,-219.3211 393,-251 393,-251 393,-251 959.0082,-251 959.0082,-251"/>
<polygon fill="#000000" stroke="#000000" points="959.0082,-254.5001 969.0082,-251 959.0082,-247.5001 959.0082,-254.5001"/>
</g>
<!-- AdminRoutingModule -->
<g id="node4" class="node">
<title>AdminRoutingModule</title>
<polygon fill="#8dd3c7" stroke="#000000" points="464.5561,-122 461.5561,-126 440.5561,-126 437.5561,-122 321.4439,-122 321.4439,-86 464.5561,-86 464.5561,-122"/>
<text text-anchor="middle" x="393" y="-99.8" font-family="Times,serif" font-size="14.00" fill="#000000">AdminRoutingModule</text>
</g>
<!-- AdminRoutingModule&#45;&gt;AdminModule -->
<g id="edge3" class="edge">
<title>AdminRoutingModule&#45;&gt;AdminModule</title>
<path fill="none" stroke="#000000" d="M393,-122.0109C393,-122.0109 393,-151.855 393,-151.855"/>
<polygon fill="#000000" stroke="#000000" points="389.5001,-151.8549 393,-161.855 396.5001,-151.855 389.5001,-151.8549"/>
</g>
<!-- SideBarModule -->
<g id="node5" class="node">
<title>SideBarModule</title>
<polygon fill="#8dd3c7" stroke="#000000" points="587.15,-122 584.15,-126 563.15,-126 560.15,-122 482.85,-122 482.85,-86 587.15,-86 587.15,-122"/>
<text text-anchor="middle" x="535" y="-99.8" font-family="Times,serif" font-size="14.00" fill="#000000">SideBarModule</text>
</g>
<!-- SideBarModule&#45;&gt;AdminModule -->
<g id="edge4" class="edge">
<title>SideBarModule&#45;&gt;AdminModule</title>
<path fill="none" stroke="#000000" d="M524.5351,-122.1985C524.5351,-146.3563 524.5351,-186 524.5351,-186 524.5351,-186 452.353,-186 452.353,-186"/>
<polygon fill="#000000" stroke="#000000" points="452.3531,-182.5001 442.353,-186 452.353,-189.5001 452.3531,-182.5001"/>
</g>
<!-- SideBarModule&#45;&gt;AppModule -->
<g id="edge8" class="edge">
<title>SideBarModule&#45;&gt;AppModule</title>
<path fill="none" stroke="#000000" d="M545.4649,-122.2067C545.4649,-159.0559 545.4649,-239 545.4649,-239 545.4649,-239 959.2772,-239 959.2772,-239"/>
<polygon fill="#000000" stroke="#000000" points="959.2772,-242.5001 969.2772,-239 959.2771,-235.5001 959.2772,-242.5001"/>
</g>
<!-- SideBarComponent  -->
<g id="node13" class="node">
<title>SideBarComponent </title>
<polygon fill="#fb8072" stroke="#000000" points="756.932,-198 627.068,-198 627.068,-162 756.932,-162 756.932,-198"/>
<text text-anchor="middle" x="692" y="-175.8" font-family="Times,serif" font-size="14.00" fill="#000000">SideBarComponent </text>
</g>
<!-- SideBarModule&#45;&gt;SideBarComponent  -->
<g id="edge13" class="edge">
<title>SideBarModule&#45;&gt;SideBarComponent </title>
<path fill="none" stroke="#000000" stroke-dasharray="5,2" d="M566.3948,-122.0267C566.3948,-142.7672 566.3948,-174 566.3948,-174 566.3948,-174 616.9899,-174 616.9899,-174"/>
<polygon fill="#000000" stroke="#000000" points="616.9899,-177.5001 626.9899,-174 616.9899,-170.5001 616.9899,-177.5001"/>
</g>
<!-- AppComponent -->
<g id="node6" class="node">
<title>AppComponent</title>
<polygon fill="#ffffb3" stroke="#000000" points="1304.9399,-198 1199.0601,-198 1199.0601,-162 1304.9399,-162 1304.9399,-198"/>
<text text-anchor="middle" x="1252" y="-175.8" font-family="Times,serif" font-size="14.00" fill="#000000">AppComponent</text>
</g>
<!-- AppComponent&#45;&gt;AppModule -->
<g id="edge5" class="edge">
<title>AppComponent&#45;&gt;AppModule</title>
<path fill="none" stroke="#000000" d="M1252,-198.2843C1252,-219.3211 1252,-251 1252,-251 1252,-251 1062.7039,-251 1062.7039,-251"/>
<polygon fill="#000000" stroke="#000000" points="1062.7039,-247.5001 1052.7039,-251 1062.7038,-254.5001 1062.7039,-247.5001"/>
</g>
<!-- AppComponent  -->
<g id="node10" class="node">
<title>AppComponent </title>
<polygon fill="#80b1d3" stroke="#000000" points="1065.439,-328 956.561,-328 956.561,-292 1065.439,-292 1065.439,-328"/>
<text text-anchor="middle" x="1011" y="-305.8" font-family="Times,serif" font-size="14.00" fill="#000000">AppComponent </text>
</g>
<!-- AppModule&#45;&gt;AppComponent  -->
<g id="edge10" class="edge">
<title>AppModule&#45;&gt;AppComponent </title>
<path fill="none" stroke="#000000" stroke-dasharray="1,5" d="M1011,-263.1061C1011,-263.1061 1011,-281.991 1011,-281.991"/>
<polygon fill="#000000" stroke="#000000" points="1007.5001,-281.9909 1011,-291.991 1014.5001,-281.991 1007.5001,-281.9909"/>
</g>
<!-- AppRoutingModule -->
<g id="node8" class="node">
<title>AppRoutingModule</title>
<polygon fill="#8dd3c7" stroke="#000000" points="1075.2744,-198 1072.2744,-202 1051.2744,-202 1048.2744,-198 946.7256,-198 946.7256,-162 1075.2744,-162 1075.2744,-198"/>
<text text-anchor="middle" x="1011" y="-175.8" font-family="Times,serif" font-size="14.00" fill="#000000">AppRoutingModule</text>
</g>
<!-- AppRoutingModule&#45;&gt;AppModule -->
<g id="edge7" class="edge">
<title>AppRoutingModule&#45;&gt;AppModule</title>
<path fill="none" stroke="#000000" d="M1011,-198.1061C1011,-198.1061 1011,-216.991 1011,-216.991"/>
<polygon fill="#000000" stroke="#000000" points="1007.5001,-216.9909 1011,-226.991 1014.5001,-216.991 1007.5001,-216.9909"/>
</g>
<!-- SiteModule -->
<g id="node9" class="node">
<title>SiteModule</title>
<polygon fill="#8dd3c7" stroke="#000000" points="1174.8289,-198 1171.8289,-202 1150.8289,-202 1147.8289,-198 1093.1711,-198 1093.1711,-162 1174.8289,-162 1174.8289,-198"/>
<text text-anchor="middle" x="1134" y="-175.8" font-family="Times,serif" font-size="14.00" fill="#000000">SiteModule</text>
</g>
<!-- SiteModule&#45;&gt;AppModule -->
<g id="edge9" class="edge">
<title>SiteModule&#45;&gt;AppModule</title>
<path fill="none" stroke="#000000" d="M1134,-198.0225C1134,-215.3734 1134,-239 1134,-239 1134,-239 1062.9856,-239 1062.9856,-239"/>
<polygon fill="#000000" stroke="#000000" points="1062.9856,-235.5001 1052.9856,-239 1062.9856,-242.5001 1062.9856,-235.5001"/>
</g>
<!-- NotFoundComponent -->
<g id="node11" class="node">
<title>NotFoundComponent</title>
<polygon fill="#ffffb3" stroke="#000000" points="892.1122,-122 753.8878,-122 753.8878,-86 892.1122,-86 892.1122,-122"/>
<text text-anchor="middle" x="823" y="-99.8" font-family="Times,serif" font-size="14.00" fill="#000000">NotFoundComponent</text>
</g>
<!-- NotFoundComponent&#45;&gt;AppRoutingModule -->
<g id="edge11" class="edge">
<title>NotFoundComponent&#45;&gt;AppRoutingModule</title>
<path fill="none" stroke="#000000" d="M892.1026,-104C907.5699,-104 919.4965,-104 919.4965,-104 919.4965,-104 919.4965,-180 919.4965,-180 919.4965,-180 936.4557,-180 936.4557,-180"/>
<polygon fill="#000000" stroke="#000000" points="936.4557,-183.5001 946.4557,-180 936.4556,-176.5001 936.4557,-183.5001"/>
</g>
<!-- SideBarComponent -->
<g id="node12" class="node">
<title>SideBarComponent</title>
<polygon fill="#ffffb3" stroke="#000000" points="907.4327,-198 780.5673,-198 780.5673,-162 907.4327,-162 907.4327,-198"/>
<text text-anchor="middle" x="844" y="-175.8" font-family="Times,serif" font-size="14.00" fill="#000000">SideBarComponent</text>
</g>
<!-- SideBarComponent&#45;&gt;SideBarModule -->
<g id="edge12" class="edge">
<title>SideBarComponent&#45;&gt;SideBarModule</title>
<path fill="none" stroke="#000000" d="M836.42,-161.8495C836.42,-149.7292 836.42,-136 836.42,-136 836.42,-136 503.6052,-136 503.6052,-136 503.6052,-136 503.6052,-132.2434 503.6052,-132.2434"/>
<polygon fill="#000000" stroke="#000000" points="507.1053,-132.2434 503.6052,-122.2434 500.1053,-132.2434 507.1053,-132.2434"/>
</g>
<!-- AboutUsComponent -->
<g id="node14" class="node">
<title>AboutUsComponent</title>
<polygon fill="#ffffb3" stroke="#000000" points="1468.8809,-122 1337.1191,-122 1337.1191,-86 1468.8809,-86 1468.8809,-122"/>
<text text-anchor="middle" x="1403" y="-99.8" font-family="Times,serif" font-size="14.00" fill="#000000">AboutUsComponent</text>
</g>
<!-- AboutUsComponent&#45;&gt;SiteModule -->
<g id="edge14" class="edge">
<title>AboutUsComponent&#45;&gt;SiteModule</title>
<path fill="none" stroke="#000000" d="M1403,-122.0439C1403,-134.5633 1403,-149 1403,-149 1403,-149 1147.5547,-149 1147.5547,-149 1147.5547,-149 1147.5547,-151.9672 1147.5547,-151.9672"/>
<polygon fill="#000000" stroke="#000000" points="1144.0548,-151.9671 1147.5547,-161.9672 1151.0548,-151.9672 1144.0548,-151.9671"/>
</g>
<!-- HomeComponent -->
<g id="node15" class="node">
<title>HomeComponent</title>
<polygon fill="#ffffb3" stroke="#000000" points="1318.5451,-122 1203.4549,-122 1203.4549,-86 1318.5451,-86 1318.5451,-122"/>
<text text-anchor="middle" x="1261" y="-99.8" font-family="Times,serif" font-size="14.00" fill="#000000">HomeComponent</text>
</g>
<!-- HomeComponent&#45;&gt;SiteModule -->
<g id="edge15" class="edge">
<title>HomeComponent&#45;&gt;SiteModule</title>
<path fill="none" stroke="#000000" d="M1203.4368,-104C1196.8393,-104 1192.418,-104 1192.418,-104 1192.418,-104 1192.418,-180 1192.418,-180 1192.418,-180 1184.8906,-180 1184.8906,-180"/>
<polygon fill="#000000" stroke="#000000" points="1184.8907,-176.5001 1174.8906,-180 1184.8906,-183.5001 1184.8907,-176.5001"/>
</g>
<!-- SiteComponent -->
<g id="node16" class="node">
<title>SiteComponent</title>
<polygon fill="#ffffb3" stroke="#000000" points="1185.6109,-122 1082.3891,-122 1082.3891,-86 1185.6109,-86 1185.6109,-122"/>
<text text-anchor="middle" x="1134" y="-99.8" font-family="Times,serif" font-size="14.00" fill="#000000">SiteComponent</text>
</g>
<!-- SiteComponent&#45;&gt;SiteModule -->
<g id="edge16" class="edge">
<title>SiteComponent&#45;&gt;SiteModule</title>
<path fill="none" stroke="#000000" d="M1120.4453,-122.0109C1120.4453,-122.0109 1120.4453,-151.855 1120.4453,-151.855"/>
<polygon fill="#000000" stroke="#000000" points="1116.9454,-151.8549 1120.4453,-161.855 1123.9454,-151.855 1116.9454,-151.8549"/>
</g>
<!-- SiteRoutingModule -->
<g id="node17" class="node">
<title>SiteRoutingModule</title>
<polygon fill="#8dd3c7" stroke="#000000" points="1058.4468,-122 1055.4468,-126 1034.4468,-126 1031.4468,-122 931.5532,-122 931.5532,-86 1058.4468,-86 1058.4468,-122"/>
<text text-anchor="middle" x="995" y="-99.8" font-family="Times,serif" font-size="14.00" fill="#000000">SiteRoutingModule</text>
</g>
<!-- SiteRoutingModule&#45;&gt;SiteModule -->
<g id="edge17" class="edge">
<title>SiteRoutingModule&#45;&gt;SiteModule</title>
<path fill="none" stroke="#000000" d="M1058.6022,-104C1070.3061,-104 1078.9158,-104 1078.9158,-104 1078.9158,-104 1078.9158,-180 1078.9158,-180 1078.9158,-180 1083.1014,-180 1083.1014,-180"/>
<polygon fill="#000000" stroke="#000000" points="1083.1014,-183.5001 1093.1014,-180 1083.1014,-176.5001 1083.1014,-183.5001"/>
</g>
</g>
</svg>
